<?xml version="1.0" encoding="UTF-8" standalone="no"?>
<!-- Created with Inkscape (http://www.inkscape.org/) -->

<svg
   xmlns:dc="http://purl.org/dc/elements/1.1/"
   xmlns:cc="http://creativecommons.org/ns#"
   xmlns:rdf="http://www.w3.org/1999/02/22-rdf-syntax-ns#"
   xmlns:svg="http://www.w3.org/2000/svg"
   xmlns="http://www.w3.org/2000/svg"
   xmlns:sodipodi="http://sodipodi.sourceforge.net/DTD/sodipodi-0.dtd"
   xmlns:inkscape="http://www.inkscape.org/namespaces/inkscape"
   id="svg2"
   version="1.1"
   inkscape:version="0.91 r13725"
   width="650"
   height="250"
   xml:space="preserve"
   sodipodi:docname="Caliper_Slider.svg"
   inkscape:export-filename="E:\PixelMeter\Graphics\Caliper\Caliper_Slider.png"
   inkscape:export-xdpi="149.61"
   inkscape:export-ydpi="149.61"><metadata
     id="metadata8"><rdf:RDF><cc:Work
         rdf:about=""><dc:format>image/svg+xml</dc:format><dc:type
           rdf:resource="http://purl.org/dc/dcmitype/StillImage" /><dc:title /></cc:Work></rdf:RDF></metadata><defs
     id="defs6"><clipPath
       clipPathUnits="userSpaceOnUse"
       id="clipPath16"><path
         d="m 108.09,801.475 241.92,0 0,-620.04 -241.92,0 0,620.04 z"
         id="path18"
         inkscape:connector-curvature="0" /></clipPath><clipPath
       clipPathUnits="userSpaceOnUse"
       id="clipPath22"><path
         d="m 0,992.175 992.16,0 0,-992.16 -992.16,0 0,992.16 z"
         id="path24"
         inkscape:connector-curvature="0" /></clipPath><clipPath
       clipPathUnits="userSpaceOnUse"
       id="clipPath1808"><path
         d="m 886.05,534.235 16.8,0 0,-24 -16.8,0 0,24 z"
         id="path1810"
         inkscape:connector-curvature="0" /></clipPath><clipPath
       clipPathUnits="userSpaceOnUse"
       id="clipPath1814"><path
         d="m 0,992.175 992.16,0 0,-992.16 -992.16,0 0,992.16 z"
         id="path1816"
         inkscape:connector-curvature="0" /></clipPath><clipPath
       clipPathUnits="userSpaceOnUse"
       id="clipPath1836"><path
         d="m 886.41,765.955 16.44,0 0,-23.28 -16.44,0 0,23.28 z"
         id="path1838"
         inkscape:connector-curvature="0" /></clipPath><clipPath
       clipPathUnits="userSpaceOnUse"
       id="clipPath1842"><path
         d="m 0,992.175 992.16,0 0,-992.16 -992.16,0 0,992.16 z"
         id="path1844"
         inkscape:connector-curvature="0" /></clipPath><clipPath
       clipPathUnits="userSpaceOnUse"
       id="clipPath1858"><path
         d="m 886.05,301.795 16.8,0 0,-24 -16.8,0 0,24 z"
         id="path1860"
         inkscape:connector-curvature="0" /></clipPath><clipPath
       clipPathUnits="userSpaceOnUse"
       id="clipPath1864"><path
         d="m 0,992.175 992.16,0 0,-992.16 -992.16,0 0,992.16 z"
         id="path1866"
         inkscape:connector-curvature="0" /></clipPath><clipPath
       clipPathUnits="userSpaceOnUse"
       id="clipPath1940"><path
         d="m 540.93,947.875 17.28,0 0,-17.28 -17.28,0 0,17.28 z"
         id="path1942"
         inkscape:connector-curvature="0" /></clipPath><clipPath
       clipPathUnits="userSpaceOnUse"
       id="clipPath1946"><path
         d="m 0,992.175 992.16,0 0,-992.16 -992.16,0 0,992.16 z"
         id="path1948"
         inkscape:connector-curvature="0" /></clipPath><clipPath
       clipPathUnits="userSpaceOnUse"
       id="clipPath1968"><path
         d="m 543.21,715.435 17.28,0 0,-17.16 -17.28,0 0,17.16 z"
         id="path1970"
         inkscape:connector-curvature="0" /></clipPath><clipPath
       clipPathUnits="userSpaceOnUse"
       id="clipPath1974"><path
         d="m 0,992.175 992.16,0 0,-992.16 -992.16,0 0,992.16 z"
         id="path1976"
         inkscape:connector-curvature="0" /></clipPath><clipPath
       clipPathUnits="userSpaceOnUse"
       id="clipPath1996"><path
         d="m 543.21,482.755 17.28,0 0,-17.28 -17.28,0 0,17.28 z"
         id="path1998"
         inkscape:connector-curvature="0" /></clipPath><clipPath
       clipPathUnits="userSpaceOnUse"
       id="clipPath2002"><path
         d="m 0,992.175 992.16,0 0,-992.16 -992.16,0 0,992.16 z"
         id="path2004"
         inkscape:connector-curvature="0" /></clipPath><clipPath
       clipPathUnits="userSpaceOnUse"
       id="clipPath2070"><path
         d="m 886.41,68.635 16.44,0 0,-23.28 -16.44,0 0,23.28 z"
         id="path2072"
         inkscape:connector-curvature="0" /></clipPath><clipPath
       clipPathUnits="userSpaceOnUse"
       id="clipPath2076"><path
         d="m 0,992.175 992.16,0 0,-992.16 -992.16,0 0,992.16 z"
         id="path2078"
         inkscape:connector-curvature="0" /></clipPath><clipPath
       clipPathUnits="userSpaceOnUse"
       id="clipPath2102"><path
         d="m 542.85,249.475 17.28,0 0,-17.28 -17.28,0 0,17.28 z"
         id="path2104"
         inkscape:connector-curvature="0" /></clipPath><clipPath
       clipPathUnits="userSpaceOnUse"
       id="clipPath2108"><path
         d="m 0,992.175 992.16,0 0,-992.16 -992.16,0 0,992.16 z"
         id="path2110"
         inkscape:connector-curvature="0" /></clipPath></defs><sodipodi:namedview
     pagecolor="#ffffff"
     bordercolor="#666666"
     borderopacity="1"
     objecttolerance="10"
     gridtolerance="10"
     guidetolerance="10"
     inkscape:pageopacity="0"
     inkscape:pageshadow="2"
     inkscape:window-width="1600"
     inkscape:window-height="1138"
     id="namedview4"
     showgrid="false"
     inkscape:zoom="2"
     inkscape:cx="276.48451"
     inkscape:cy="218.95487"
     inkscape:window-x="3512"
     inkscape:window-y="-8"
     inkscape:window-maximized="1"
     inkscape:current-layer="g10"
     showguides="true"
     inkscape:guide-bbox="true" /><g
     id="g10"
     inkscape:groupmode="layer"
     inkscape:label="MarCal--16_FN--3756613--BA--DE-EN-FR-IT--2008-01-01"
     transform="matrix(0,-1.25,-1.25,0,1240.1875,250)"><g
       transform="matrix(0.84240971,0,0,0.84240971,144.61897,847.50537)"
       id="g1442"
       style="fill:#c8c8c8;fill-opacity:1"><path
         inkscape:connector-curvature="0"
         id="path1444"
         style="fill:#c8c8c8;fill-opacity:1;stroke:#000000;stroke-width:0.69999999;stroke-linecap:butt;stroke-linejoin:miter;stroke-miterlimit:10;stroke-dasharray:none;stroke-opacity:1"
         d="m 0,0 -3.5392,0 0,4.2239 L 0,4.2239 0,0 Z" /><g
         transform="translate(9.003,-5.528)"
         id="g1446"
         style="fill:#c8c8c8;fill-opacity:1"><path
           inkscape:connector-curvature="0"
           id="path1448"
           style="fill:#c8c8c8;fill-opacity:1;stroke:#000000;stroke-width:0.69999999;stroke-linecap:butt;stroke-linejoin:miter;stroke-miterlimit:10;stroke-dasharray:none;stroke-opacity:1"
           d="m 0,0 -8.941,0 0,15.902 8.941,0 L 0,0 Z" /></g></g><g
       transform="matrix(0.84240971,0,0,0.84240971,132.91959,926.69525)"
       id="g1506"
       style="fill:#c8c8c8;fill-opacity:1"><path
         inkscape:connector-curvature="0"
         id="path1508"
         style="fill:#c8c8c8;fill-opacity:1;stroke:#000000;stroke-width:0.69999999;stroke-linecap:round;stroke-linejoin:round;stroke-miterlimit:10;stroke-dasharray:none;stroke-opacity:1"
         d="M 0.29168155,0 12.784,0.04 41.442,-9.944 c 2.493,-1.796 4.647,-5.062 4.647,-5.062 l -21.939,0 c 0,0 -0.56,1.211 -2.803,1.35 l -11.417,0.041 0,-18.636 -9.67500191,0"
         sodipodi:nodetypes="ccccccccc" /></g><g
       transform="matrix(0.84240971,0,0,0.84240971,128.24169,800.74826)"
       id="g1530"
       style="fill:#c8c8c8;fill-opacity:1"><path
         inkscape:connector-curvature="0"
         id="path1532"
         style="fill:#c8c8c8;fill-opacity:1;stroke:#000000;stroke-width:0.69999999;stroke-linecap:round;stroke-linejoin:round;stroke-miterlimit:10;stroke-dasharray:none;stroke-opacity:1"
         d="m 0,0 0,117.617 15.727,0.013 0,-117.709 L 0,0 Z" /></g><g
       transform="matrix(0.84240971,0,0,0.84240971,113.91061,539.0183)"
       id="g1498"
       style="fill:#b4b4b4;fill-opacity:1"><path
         sodipodi:nodetypes="cccccc"
         inkscape:connector-curvature="0"
         id="path1500"
         style="fill:#b4b4b4;fill-opacity:1;stroke:#000000;stroke-width:0.69999999;stroke-linecap:butt;stroke-linejoin:miter;stroke-miterlimit:10;stroke-dasharray:none;stroke-opacity:1"
         d="M 0,312.97696 0,-55.282 l 2.802,-0.004 0,4.811 c 0,3.517 1.621,6.518 5.656,6.748 l 0,356.57896" /></g><g
       transform="matrix(0.84240971,0,0,0.84240971,108.48634,800.69351)"
       id="g1542"
       style="fill:#c8c8c8;fill-opacity:1"><path
         inkscape:connector-curvature="0"
         id="path1544"
         style="fill:#c8c8c8;fill-opacity:1;stroke:#000000;stroke-width:0.69999999;stroke-linecap:butt;stroke-linejoin:miter;stroke-miterlimit:10;stroke-dasharray:none;stroke-opacity:1"
         d="m 0,0 -16.479,0 -4.348,0.359 c 0,0 -5.243,4.839 -5.242,13.16 10e-4,6.249 3.988,14.312 6.998,17.001 2.749,2.25 2.592,6.477 2.592,6.477 l 0,50.502 c 0,0 -66.553,18.037 -66.553,18.233 l -12.139,13.918 66.827,0.035 0.004,-1.52 28.39,0 L 0,0 Z" /></g><rect
       style="color:#000000;display:inline;overflow:visible;visibility:visible;fill:#dcdcdc;fill-opacity:1;fill-rule:nonzero;stroke:none;stroke-width:0.62037164;marker:none;enable-background:accumulate"
       id="rect5367"
       width="99.056595"
       height="10.277399"
       x="-899.95807"
       y="-108.41136"
       transform="matrix(0,-1,-1,0,0,0)" /><g
       transform="matrix(0.84240971,0,0,0.84240971,152.1518,854.46452)"
       id="g1426"
       style="fill:#c8c8c8;fill-opacity:1"><path
         inkscape:connector-curvature="0"
         id="path1428"
         style="fill:#c8c8c8;fill-opacity:1;stroke:#000000;stroke-width:0.30000001;stroke-linecap:butt;stroke-linejoin:miter;stroke-miterlimit:10;stroke-dasharray:none;stroke-opacity:1"
         d="M 0,0 -8.755,0" /><g
         transform="translate(0,-1.366)"
         id="g1430"
         style="fill:#c8c8c8;fill-opacity:1"><path
           inkscape:connector-curvature="0"
           id="path1432"
           style="fill:#c8c8c8;fill-opacity:1;stroke:#000000;stroke-width:0.30000001;stroke-linecap:butt;stroke-linejoin:miter;stroke-miterlimit:10;stroke-dasharray:none;stroke-opacity:1"
           d="M 0,0 -8.755,0" /><g
           transform="translate(0.062,-1.491)"
           id="g1434"
           style="fill:#c8c8c8;fill-opacity:1"><path
             inkscape:connector-curvature="0"
             id="path1436"
             style="fill:#c8c8c8;fill-opacity:1;stroke:#000000;stroke-width:0.30000001;stroke-linecap:butt;stroke-linejoin:miter;stroke-miterlimit:10;stroke-dasharray:none;stroke-opacity:1"
             d="M 0,0 -8.755,0" /><g
             transform="translate(-0.062,-1.429)"
             id="g1438"
             style="fill:#c8c8c8;fill-opacity:1"><path
               inkscape:connector-curvature="0"
               id="path1440"
               style="fill:#c8c8c8;fill-opacity:1;stroke:#000000;stroke-width:0.30000001;stroke-linecap:butt;stroke-linejoin:miter;stroke-miterlimit:10;stroke-dasharray:none;stroke-opacity:1"
               d="M 0,0 -8.755,0" /></g></g></g></g><g
       transform="matrix(0.84240971,0,0,0.84240971,144.93993,843.12737)"
       id="g1450"
       style="fill:#c8c8c8;fill-opacity:1"><path
         inkscape:connector-curvature="0"
         id="path1452"
         style="fill:#c8c8c8;fill-opacity:1;stroke:#000000;stroke-width:0.259;stroke-linecap:butt;stroke-linejoin:miter;stroke-miterlimit:10;stroke-dasharray:none;stroke-opacity:1"
         d="M 0,0 8.755,0" /><g
         transform="translate(-0.062,0.994)"
         id="g1454"
         style="fill:#c8c8c8;fill-opacity:1"><path
           inkscape:connector-curvature="0"
           id="path1456"
           style="fill:#c8c8c8;fill-opacity:1;stroke:#000000;stroke-width:0.259;stroke-linecap:butt;stroke-linejoin:miter;stroke-miterlimit:10;stroke-dasharray:none;stroke-opacity:1"
           d="M 0,0 8.755,0" /><g
           transform="translate(0,1.366)"
           id="g1458"
           style="fill:#c8c8c8;fill-opacity:1"><path
             inkscape:connector-curvature="0"
             id="path1460"
             style="fill:#c8c8c8;fill-opacity:1;stroke:#000000;stroke-width:0.259;stroke-linecap:butt;stroke-linejoin:miter;stroke-miterlimit:10;stroke-dasharray:none;stroke-opacity:1"
             d="M 0,0 8.755,0" /><g
             transform="translate(-0.062,1.492)"
             id="g1462"
             style="fill:#c8c8c8;fill-opacity:1"><path
               inkscape:connector-curvature="0"
               id="path1464"
               style="fill:#c8c8c8;fill-opacity:1;stroke:#000000;stroke-width:0.259;stroke-linecap:butt;stroke-linejoin:miter;stroke-miterlimit:10;stroke-dasharray:none;stroke-opacity:1"
               d="M 0,0 8.755,0" /><g
               transform="translate(-0.207,1.927)"
               id="g1466"
               style="fill:#c8c8c8;fill-opacity:1"><path
                 inkscape:connector-curvature="0"
                 id="path1468"
                 style="fill:#c8c8c8;fill-opacity:1;stroke:#000000;stroke-width:0.259;stroke-linecap:butt;stroke-linejoin:miter;stroke-miterlimit:10;stroke-dasharray:none;stroke-opacity:1"
                 d="M 0,0 8.755,0" /><g
                 transform="translate(0.299,1.782)"
                 id="g1470"
                 style="fill:#c8c8c8;fill-opacity:1"><path
                   inkscape:connector-curvature="0"
                   id="path1472"
                   style="fill:#c8c8c8;fill-opacity:1;stroke:#000000;stroke-width:0.259;stroke-linecap:butt;stroke-linejoin:miter;stroke-miterlimit:10;stroke-dasharray:none;stroke-opacity:1"
                   d="M 0,0 8.755,0" /></g></g></g></g></g></g><g
       transform="matrix(0.84240971,0,0,0.84240971,97.909883,900.19726)"
       id="g1474"><path
         inkscape:connector-curvature="0"
         id="path1476"
         style="fill:none;stroke:#000000;stroke-width:0.5;stroke-linecap:round;stroke-linejoin:round;stroke-miterlimit:10;stroke-dasharray:none;stroke-opacity:1"
         d="M 0,0 0,-117.758" /><g
         transform="translate(47.497,-0.467)"
         id="g1478"><path
           inkscape:connector-curvature="0"
           id="path1480"
           style="fill:none;stroke:#000000;stroke-width:0.5;stroke-linecap:round;stroke-linejoin:round;stroke-miterlimit:10;stroke-dasharray:none;stroke-opacity:1"
           d="M 0,0 0,-117.291" /><g
           transform="translate(4.221,8.1)"
           id="g1482" /></g></g><g
       transform="matrix(0.84240971,0,0,0.84240971,85.216453,876.99813)"
       id="g1494"
       style="fill:#dcdcdc;fill-opacity:1"><path
         inkscape:connector-curvature="0"
         id="path1496"
         style="fill:#dcdcdc;fill-opacity:1;stroke:#000000;stroke-width:0.5;stroke-linecap:butt;stroke-linejoin:miter;stroke-miterlimit:10;stroke-dasharray:none;stroke-opacity:1"
         d="M 0,0 0,27.572" /></g><g
       transform="matrix(0.84240971,0,0,0.84240971,109.894,549.30581)"
       id="g1502" /><path
       d="m 48.182437,901.54086 0,-8.83013 -12.274041,0 -7.738046,8.83166 19.958569,-0.1053"
       style="color:#000000;display:inline;overflow:visible;visibility:visible;fill:#dcdcdc;fill-opacity:1;fill-rule:nonzero;stroke:#000000;stroke-width:0.42120486;stroke-linecap:butt;stroke-linejoin:miter;stroke-miterlimit:10;stroke-dasharray:none;stroke-dashoffset:0;stroke-opacity:1;marker:none;enable-background:accumulate"
       id="path1488-1"
       inkscape:connector-curvature="0"
       sodipodi:nodetypes="ccccc" /><rect
       style="color:#000000;display:inline;overflow:visible;visibility:visible;fill:#dcdcdc;fill-opacity:1;fill-rule:nonzero;stroke:none;stroke-width:0.62037164;marker:none;enable-background:accumulate"
       id="rect5367-4"
       width="98.677513"
       height="9.1822662"
       x="-899.57892"
       y="-137.72722"
       transform="matrix(0,-1,-1,0,0,0)" /></g></svg>