<?xml version="1.0" encoding="UTF-8" standalone="no"?>
<!-- Created with Inkscape (http://www.inkscape.org/) -->

<svg
   xmlns:dc="http://purl.org/dc/elements/1.1/"
   xmlns:cc="http://creativecommons.org/ns#"
   xmlns:rdf="http://www.w3.org/1999/02/22-rdf-syntax-ns#"
   xmlns:svg="http://www.w3.org/2000/svg"
   xmlns="http://www.w3.org/2000/svg"
   xmlns:sodipodi="http://sodipodi.sourceforge.net/DTD/sodipodi-0.dtd"
   xmlns:inkscape="http://www.inkscape.org/namespaces/inkscape"
   id="svg2"
   version="1.1"
   inkscape:version="0.91 r13725"
   width="650"
   height="250"
   xml:space="preserve"
   sodipodi:docname="Vernier_Caliper_150mm_Back.svg"><metadata
     id="metadata8"><rdf:RDF><cc:Work
         rdf:about=""><dc:format>image/svg+xml</dc:format><dc:type
           rdf:resource="http://purl.org/dc/dcmitype/StillImage" /><dc:title></dc:title></cc:Work></rdf:RDF></metadata><defs
     id="defs6"><clipPath
       clipPathUnits="userSpaceOnUse"
       id="clipPath16"><path
         d="m 108.09,801.475 241.92,0 0,-620.04 -241.92,0 0,620.04 z"
         id="path18"
         inkscape:connector-curvature="0" /></clipPath><clipPath
       clipPathUnits="userSpaceOnUse"
       id="clipPath22"><path
         d="m 0,992.175 992.16,0 0,-992.16 -992.16,0 0,992.16 z"
         id="path24"
         inkscape:connector-curvature="0" /></clipPath><clipPath
       clipPathUnits="userSpaceOnUse"
       id="clipPath1808"><path
         d="m 886.05,534.235 16.8,0 0,-24 -16.8,0 0,24 z"
         id="path1810"
         inkscape:connector-curvature="0" /></clipPath><clipPath
       clipPathUnits="userSpaceOnUse"
       id="clipPath1814"><path
         d="m 0,992.175 992.16,0 0,-992.16 -992.16,0 0,992.16 z"
         id="path1816"
         inkscape:connector-curvature="0" /></clipPath><clipPath
       clipPathUnits="userSpaceOnUse"
       id="clipPath1836"><path
         d="m 886.41,765.955 16.44,0 0,-23.28 -16.44,0 0,23.28 z"
         id="path1838"
         inkscape:connector-curvature="0" /></clipPath><clipPath
       clipPathUnits="userSpaceOnUse"
       id="clipPath1842"><path
         d="m 0,992.175 992.16,0 0,-992.16 -992.16,0 0,992.16 z"
         id="path1844"
         inkscape:connector-curvature="0" /></clipPath><clipPath
       clipPathUnits="userSpaceOnUse"
       id="clipPath1858"><path
         d="m 886.05,301.795 16.8,0 0,-24 -16.8,0 0,24 z"
         id="path1860"
         inkscape:connector-curvature="0" /></clipPath><clipPath
       clipPathUnits="userSpaceOnUse"
       id="clipPath1864"><path
         d="m 0,992.175 992.16,0 0,-992.16 -992.16,0 0,992.16 z"
         id="path1866"
         inkscape:connector-curvature="0" /></clipPath><clipPath
       clipPathUnits="userSpaceOnUse"
       id="clipPath1940"><path
         d="m 540.93,947.875 17.28,0 0,-17.28 -17.28,0 0,17.28 z"
         id="path1942"
         inkscape:connector-curvature="0" /></clipPath><clipPath
       clipPathUnits="userSpaceOnUse"
       id="clipPath1946"><path
         d="m 0,992.175 992.16,0 0,-992.16 -992.16,0 0,992.16 z"
         id="path1948"
         inkscape:connector-curvature="0" /></clipPath><clipPath
       clipPathUnits="userSpaceOnUse"
       id="clipPath1968"><path
         d="m 543.21,715.435 17.28,0 0,-17.16 -17.28,0 0,17.16 z"
         id="path1970"
         inkscape:connector-curvature="0" /></clipPath><clipPath
       clipPathUnits="userSpaceOnUse"
       id="clipPath1974"><path
         d="m 0,992.175 992.16,0 0,-992.16 -992.16,0 0,992.16 z"
         id="path1976"
         inkscape:connector-curvature="0" /></clipPath><clipPath
       clipPathUnits="userSpaceOnUse"
       id="clipPath1996"><path
         d="m 543.21,482.755 17.28,0 0,-17.28 -17.28,0 0,17.28 z"
         id="path1998"
         inkscape:connector-curvature="0" /></clipPath><clipPath
       clipPathUnits="userSpaceOnUse"
       id="clipPath2002"><path
         d="m 0,992.175 992.16,0 0,-992.16 -992.16,0 0,992.16 z"
         id="path2004"
         inkscape:connector-curvature="0" /></clipPath><clipPath
       clipPathUnits="userSpaceOnUse"
       id="clipPath2070"><path
         d="m 886.41,68.635 16.44,0 0,-23.28 -16.44,0 0,23.28 z"
         id="path2072"
         inkscape:connector-curvature="0" /></clipPath><clipPath
       clipPathUnits="userSpaceOnUse"
       id="clipPath2076"><path
         d="m 0,992.175 992.16,0 0,-992.16 -992.16,0 0,992.16 z"
         id="path2078"
         inkscape:connector-curvature="0" /></clipPath><clipPath
       clipPathUnits="userSpaceOnUse"
       id="clipPath2102"><path
         d="m 542.85,249.475 17.28,0 0,-17.28 -17.28,0 0,17.28 z"
         id="path2104"
         inkscape:connector-curvature="0" /></clipPath><clipPath
       clipPathUnits="userSpaceOnUse"
       id="clipPath2108"><path
         d="m 0,992.175 992.16,0 0,-992.16 -992.16,0 0,992.16 z"
         id="path2110"
         inkscape:connector-curvature="0" /></clipPath></defs><sodipodi:namedview
     pagecolor="#ffffff"
     bordercolor="#666666"
     borderopacity="1"
     objecttolerance="10"
     gridtolerance="10"
     guidetolerance="10"
     inkscape:pageopacity="0"
     inkscape:pageshadow="2"
     inkscape:window-width="1920"
     inkscape:window-height="1178"
     id="namedview4"
     showgrid="false"
     inkscape:zoom="1.4142136"
     inkscape:cx="317.77424"
     inkscape:cy="203.14677"
     inkscape:window-x="1592"
     inkscape:window-y="-8"
     inkscape:window-maximized="1"
     inkscape:current-layer="g10"
     showguides="true"
     inkscape:guide-bbox="true" /><g
     id="g10"
     inkscape:groupmode="layer"
     inkscape:label="MarCal--16_FN--3756613--BA--DE-EN-FR-IT--2008-01-01"
     transform="matrix(0,-1.25,-1.25,0,1240.1875,250)"><g
       transform="matrix(0.84240971,0,0,0.84240971,139.37494,909.15904)"
       id="g1534"
       style="fill:#c8c8c8;fill-opacity:1"><path
         inkscape:connector-curvature="0"
         id="path1536"
         style="fill:#c8c8c8;fill-opacity:1;stroke:#000000;stroke-width:0.69999999;stroke-linecap:butt;stroke-linejoin:miter;stroke-miterlimit:10;stroke-dasharray:none;stroke-opacity:1"
         d="M 0,0.38964466 0,48.475 l -1.282,1.452 -0.005,5.11 14.124,-0.008 24.48,6.602 c 6.425,4.011 8.428,7.981 8.428,7.981 l -20.845,0 c 0,0 -0.335,-1.389 -2.704,-1.349 l -12.561,0.025 0,14.575 c 0,0 -0.247,2.697 -2.923,2.608 -0.231,-0.007 -51.303,0 -51.303,0 0,0 -64.96,-16.232 -64.99,-15.958 -1.777,-0.679 -14.541,-15.22 -14.541,-15.22 l 66.853,0 -0.022,1.229 23.691,0.138 0,-7.643 -1.61,-0.993 0,-46.15332233"
         sodipodi:nodetypes="ccccccccccccccccccccc" /></g><rect
       style="color:#000000;display:inline;overflow:visible;visibility:visible;fill:#c8c8c8;fill-opacity:1;fill-rule:nonzero;stroke:none;stroke-width:1.77165353;marker:none;enable-background:accumulate"
       id="rect5331"
       width="114.89883"
       height="27.003872"
       x="-917.92017"
       y="-137.81213"
       transform="matrix(0,-1,-1,0,0,0)" /><g
       transform="matrix(0.8423391,0,0,1.166079,109.7149,910.59441)"
       id="g1522"
       style="fill:#c8c8c8;fill-opacity:1"><path
         inkscape:connector-curvature="0"
         id="path1524"
         style="fill:#c8c8c8;fill-opacity:1;stroke:#000000;stroke-width:0.69999999;stroke-linecap:round;stroke-linejoin:round;stroke-miterlimit:10;stroke-dasharray:none;stroke-opacity:1"
         d="m 0,0 0,-310.655 35.21,0 0,310.384" /></g><path
       d="m 54.513955,955.11671 0,7.77712 -12.512311,0 -7.082806,-7.92607 19.541598,0"
       style="fill:#dcdcdc;fill-opacity:1;stroke:#000000;stroke-width:0.42120486;stroke-linecap:butt;stroke-linejoin:miter;stroke-miterlimit:10;stroke-dasharray:none;stroke-opacity:1"
       id="path1488"
       inkscape:connector-curvature="0"
       sodipodi:nodetypes="ccccc" /><path
       inkscape:connector-curvature="0"
       id="path1492"
       style="fill:#dcdcdc;fill-opacity:1;stroke:#000000;stroke-width:0.42120486;stroke-linecap:butt;stroke-linejoin:miter;stroke-miterlimit:10;stroke-dasharray:none;stroke-opacity:1"
       d="m 171.31761,961.4432 -20.76052,-0.0497 -0.0497,5.30617 7.80041,-0.0297 c 1.51898,-0.0298 2.09327,1.14961 2.09327,1.14961 l 17.49915,0 c 0,0 -1.6428,-3.17759 -6.58689,-6.4538"
       sodipodi:nodetypes="ccccccc" /><g
       transform="matrix(0.84240971,0,0,0.84240971,116.394,558.6947)"
       id="g1502"><path
         inkscape:connector-curvature="0"
         id="path1504"
         style="fill:none;stroke:#000000;stroke-width:0.56699997;stroke-linecap:butt;stroke-linejoin:miter;stroke-miterlimit:10;stroke-dasharray:none;stroke-opacity:1"
         d="m 0,0 c 1.271,0 2.302,-1.031 2.302,-2.303 0,-1.272 -1.031,-2.303 -2.302,-2.303 -1.272,0 -2.302,1.031 -2.302,2.303 C -2.302,-1.031 -1.272,0 0,0 Z" /></g><path
       d="m 135.73489,909.27193 0.0135,72.05636"
       style="fill:none;stroke:#000000;stroke-width:0.42120486;stroke-linecap:butt;stroke-linejoin:miter;stroke-miterlimit:10;stroke-dasharray:none;stroke-opacity:1"
       id="path1512"
       inkscape:connector-curvature="0" /><g
       id="g1514"
       transform="matrix(0.83979449,0,0,1.1633023,135.83997,548.3687)"><path
         d="M 0,0 -0.126,310.542"
         style="fill:none;stroke:#000000;stroke-width:0.5;stroke-linecap:butt;stroke-linejoin:miter;stroke-miterlimit:10;stroke-dasharray:none;stroke-opacity:1"
         id="path1516"
         inkscape:connector-curvature="0" /><g
         id="g1518"
         transform="translate(-26.944,310.691)"><path
           d="M 0,0 0,-310.647"
           style="fill:none;stroke:#000000;stroke-width:0.5;stroke-linecap:butt;stroke-linejoin:miter;stroke-miterlimit:10;stroke-dasharray:none;stroke-opacity:1"
           id="path1520"
           inkscape:connector-curvature="0" /></g></g><g
       transform="matrix(0.84240971,0,0,0.84240971,113.25771,980.83547)"
       id="g1538"><path
         inkscape:connector-curvature="0"
         id="path1540"
         style="fill:none;stroke:#000000;stroke-width:0.5;stroke-linecap:butt;stroke-linejoin:miter;stroke-miterlimit:10;stroke-dasharray:none;stroke-opacity:1"
         d="M 0,0 -0.053,-84.403" /></g></g></svg>